<svg width="40" height="40" viewBox="0 0 24 24" fill="none" xmlns="http://www.w3.org/2000/svg">
<path d="M11 3H13C16.7712 3 18.6569 3 19.8284 4.17157C21 5.34315 21 7.22876 21 11V13M10 21C7.19108 21 5.78661 21 4.77772 20.3259C4.34096 20.034 3.96596 19.659 3.67412 19.2223C3 18.2134 3 16.8089 3 14C3 11.1911 3 9.78661 3.67412 8.77772C3.96596 8.34096 4.34096 7.96596 4.77772 7.67412C5.78661 7 7.19108 7 10 7C12.8089 7 14.2134 7 15.2223 7.67412C15.659 7.96596 16.034 8.34096 16.3259 8.77772C17 9.78661 17 11.1911 17 14C17 16.8089 17 18.2134 16.3259 19.2223C16.034 19.659 15.659 20.034 15.2223 20.3259C14.2134 21 12.8089 21 10 21Z" stroke="#8000ff" stroke-width="1.5" stroke-linecap="round" class="my-path"/>
</svg>