<svg width="40px" height="40px" viewBox="0 0 24 24" fill="none" xmlns="http://www.w3.org/2000/svg">
<path d="M3 15C3 13.1362 3 12.2044 3.30448 11.4693C3.71046 10.4892 4.48915 9.71046 5.46927 9.30448C6.20435 9 7.13623 9 9 9H15C16.8638 9 17.7956 9 18.5307 9.30448C19.5108 9.71046 20.2895 10.4892 20.6955 11.4693C21 12.2044 21 13.1362 21 15C21 16.8638 21 17.7956 20.6955 18.5307C20.2895 19.5108 19.5108 20.2895 18.5307 20.6955C17.7956 21 16.8638 21 15 21H9C7.13623 21 6.20435 21 5.46927 20.6955C4.48915 20.2895 3.71046 19.5108 3.30448 18.5307C3 17.7956 3 16.8638 3 15Z" stroke="#1e00ff" stroke-width="1.5" class="my-path"/>
<path d="M8 7C8 4.79086 9.79086 3 12 3C14.2091 3 16 4.79086 16 7V9H8V7Z" stroke="#1e00ff" stroke-width="1.5" class="my-path"/>
<path d="M14 15C14 16.1046 13.1046 17 12 17C10.8954 17 10 16.1046 10 15C10 13.8954 10.8954 13 12 13C13.1046 13 14 13.8954 14 15Z" stroke="#1e00ff" stroke-width="1.5" class="my-path"/>
</svg>